<mxfile host="app.diagrams.net" modified="2023-03-08T20:05:50.801Z" agent="5.0 (Windows)" etag="bvshb48kzPlSHc1OLd5R" version="21.0.2" type="github">
  <diagram name="Page-1" id="TInnaNvXgo5wHMZR5hZs">
    <mxGraphModel dx="1050" dy="558" grid="1" gridSize="10" guides="1" tooltips="1" connect="1" arrows="1" fold="1" page="1" pageScale="1" pageWidth="827" pageHeight="1169" math="0" shadow="0">
      <root>
        <mxCell id="0" />
        <mxCell id="1" parent="0" />
        <mxCell id="aV8iwCZ988Jx_RelG2w6-1" value="Gestor" style="shape=umlActor;verticalLabelPosition=bottom;verticalAlign=top;html=1;outlineConnect=0;" parent="1" vertex="1">
          <mxGeometry x="361" y="735" width="30" height="60" as="geometry" />
        </mxCell>
        <mxCell id="aV8iwCZ988Jx_RelG2w6-6" value="" style="endArrow=classic;html=1;rounded=0;entryX=0.728;entryY=0.985;entryDx=0;entryDy=0;entryPerimeter=0;" parent="1" edge="1" target="aV8iwCZ988Jx_RelG2w6-7">
          <mxGeometry width="50" height="50" relative="1" as="geometry">
            <mxPoint x="351" y="765" as="sourcePoint" />
            <mxPoint x="96" y="660" as="targetPoint" />
          </mxGeometry>
        </mxCell>
        <mxCell id="aV8iwCZ988Jx_RelG2w6-7" value="GESTIONAR DATOS&#xa;ARTÍCULOS&#xa;" style="ellipse;fontFamily=Verdana;" parent="1" vertex="1">
          <mxGeometry x="70.77000000000001" y="570" width="150" height="65" as="geometry" />
        </mxCell>
        <mxCell id="aV8iwCZ988Jx_RelG2w6-13" value="" style="endArrow=classic;html=1;rounded=0;entryX=0.5;entryY=1;entryDx=0;entryDy=0;" parent="1" target="aV8iwCZ988Jx_RelG2w6-30" edge="1">
          <mxGeometry width="50" height="50" relative="1" as="geometry">
            <mxPoint x="391" y="725" as="sourcePoint" />
            <mxPoint x="396" y="650" as="targetPoint" />
          </mxGeometry>
        </mxCell>
        <mxCell id="aV8iwCZ988Jx_RelG2w6-14" value="" style="endArrow=classic;html=1;rounded=0;entryX=0.5;entryY=1;entryDx=0;entryDy=0;" parent="1" target="aV8iwCZ988Jx_RelG2w6-41" edge="1">
          <mxGeometry width="50" height="50" relative="1" as="geometry">
            <mxPoint x="415" y="765" as="sourcePoint" />
            <mxPoint x="695" y="660" as="targetPoint" />
          </mxGeometry>
        </mxCell>
        <mxCell id="aV8iwCZ988Jx_RelG2w6-19" value="DAR ALTA&#xa;ARTÍCULO&#xa;&#xa;" style="ellipse;fontFamily=Verdana;fontSize=9;align=center;verticalAlign=top;labelPosition=center;verticalLabelPosition=middle;" parent="1" vertex="1">
          <mxGeometry x="160" y="345" width="80.77" height="35" as="geometry" />
        </mxCell>
        <mxCell id="aV8iwCZ988Jx_RelG2w6-20" value="DAR BAJA&#xa;ARTÍCULO&#xa;&#xa;" style="ellipse;fontFamily=Verdana;fontSize=9;align=center;verticalAlign=top;labelPosition=center;verticalLabelPosition=middle;" parent="1" vertex="1">
          <mxGeometry x="560" y="310" width="80.77" height="35" as="geometry" />
        </mxCell>
        <mxCell id="aV8iwCZ988Jx_RelG2w6-21" value="MODIFICAR &#xa;DATOS ARTÍCULO&#xa;&#xa;" style="ellipse;fontFamily=Verdana;fontSize=9;align=center;verticalAlign=top;labelPosition=center;verticalLabelPosition=middle;spacing=0;" parent="1" vertex="1">
          <mxGeometry x="450" y="290" width="80.77" height="35" as="geometry" />
        </mxCell>
        <mxCell id="aV8iwCZ988Jx_RelG2w6-24" value="CONSULTAR&#xa;ARTÍCULO&#xa;&#xa;" style="ellipse;fontFamily=Verdana;fontSize=9;align=center;verticalAlign=top;labelPosition=center;verticalLabelPosition=middle;" parent="1" vertex="1">
          <mxGeometry x="335.61" y="290" width="80.77" height="35" as="geometry" />
        </mxCell>
        <mxCell id="aV8iwCZ988Jx_RelG2w6-25" value="GENERAR INFORME&#xa;ARTÍCULO&#xa;&#xa;" style="ellipse;fontFamily=Verdana;fontSize=8;align=center;verticalAlign=top;labelPosition=center;verticalLabelPosition=middle;" parent="1" vertex="1">
          <mxGeometry x="220" y="290" width="90.77" height="35" as="geometry" />
        </mxCell>
        <mxCell id="aV8iwCZ988Jx_RelG2w6-26" value="include" style="html=1;verticalAlign=bottom;labelBackgroundColor=none;endArrow=open;endFill=0;dashed=1;rounded=0;fontFamily=Verdana;exitX=0.608;exitY=0;exitDx=0;exitDy=0;exitPerimeter=0;entryX=0;entryY=0.5;entryDx=0;entryDy=0;" parent="1" source="aV8iwCZ988Jx_RelG2w6-7" target="VMAg0nFnMojZHeVVgGfn-2" edge="1">
          <mxGeometry x="-0.5294" y="7" width="160" relative="1" as="geometry">
            <mxPoint x="40" y="628" as="sourcePoint" />
            <mxPoint x="230" y="510" as="targetPoint" />
            <mxPoint as="offset" />
          </mxGeometry>
        </mxCell>
        <mxCell id="aV8iwCZ988Jx_RelG2w6-30" value="GESTIONAR DATOS&#xa;FACTURAS&#xa;" style="ellipse;fontFamily=Verdana;" parent="1" vertex="1">
          <mxGeometry x="330" y="552" width="150" height="65" as="geometry" />
        </mxCell>
        <mxCell id="aV8iwCZ988Jx_RelG2w6-40" value="include" style="html=1;verticalAlign=bottom;labelBackgroundColor=none;endArrow=open;endFill=0;dashed=1;rounded=0;fontFamily=Verdana;exitX=0.5;exitY=0;exitDx=0;exitDy=0;" parent="1" source="aV8iwCZ988Jx_RelG2w6-30" target="VMAg0nFnMojZHeVVgGfn-2" edge="1">
          <mxGeometry x="-0.5294" y="7" width="160" relative="1" as="geometry">
            <mxPoint x="432.77" y="660" as="sourcePoint" />
            <mxPoint x="405" y="480" as="targetPoint" />
            <mxPoint as="offset" />
          </mxGeometry>
        </mxCell>
        <mxCell id="aV8iwCZ988Jx_RelG2w6-41" value="GESTIONAR DATOS&#xa;CLIENTES&#xa;" style="ellipse;fontFamily=Verdana;" parent="1" vertex="1">
          <mxGeometry x="540" y="570" width="150" height="65" as="geometry" />
        </mxCell>
        <mxCell id="VMAg0nFnMojZHeVVgGfn-1" value="include" style="html=1;verticalAlign=bottom;labelBackgroundColor=none;endArrow=open;endFill=0;dashed=1;rounded=0;fontFamily=Verdana;exitX=1;exitY=0;exitDx=0;exitDy=0;entryX=1;entryY=0.5;entryDx=0;entryDy=0;" edge="1" parent="1" target="VMAg0nFnMojZHeVVgGfn-2">
          <mxGeometry x="-0.5294" y="7" width="160" relative="1" as="geometry">
            <mxPoint x="620" y="568.99" as="sourcePoint" />
            <mxPoint x="701.96567" y="551.9950000000001" as="targetPoint" />
            <mxPoint as="offset" />
          </mxGeometry>
        </mxCell>
        <mxCell id="VMAg0nFnMojZHeVVgGfn-2" value="&lt;div&gt;Mantener&lt;/div&gt;&lt;div&gt;Datos&lt;br&gt;&lt;/div&gt;" style="ellipse;whiteSpace=wrap;html=1;" vertex="1" parent="1">
          <mxGeometry x="335.61" y="410" width="140" height="70" as="geometry" />
        </mxCell>
        <mxCell id="VMAg0nFnMojZHeVVgGfn-4" value="extend" style="html=1;verticalAlign=bottom;labelBackgroundColor=none;endArrow=open;endFill=0;dashed=1;rounded=0;fontFamily=Verdana;exitX=1;exitY=1;exitDx=0;exitDy=0;entryX=0;entryY=0;entryDx=0;entryDy=0;" edge="1" parent="1" source="aV8iwCZ988Jx_RelG2w6-19" target="VMAg0nFnMojZHeVVgGfn-2">
          <mxGeometry x="-0.5294" y="7" width="160" relative="1" as="geometry">
            <mxPoint x="172" y="580" as="sourcePoint" />
            <mxPoint x="346" y="455" as="targetPoint" />
            <mxPoint as="offset" />
          </mxGeometry>
        </mxCell>
        <mxCell id="VMAg0nFnMojZHeVVgGfn-5" value="extend" style="html=1;verticalAlign=bottom;labelBackgroundColor=none;endArrow=open;endFill=0;dashed=1;rounded=0;fontFamily=Verdana;exitX=0.607;exitY=1;exitDx=0;exitDy=0;exitPerimeter=0;" edge="1" parent="1" source="aV8iwCZ988Jx_RelG2w6-25" target="VMAg0nFnMojZHeVVgGfn-2">
          <mxGeometry x="-0.5294" y="7" width="160" relative="1" as="geometry">
            <mxPoint x="239" y="385" as="sourcePoint" />
            <mxPoint x="366" y="430" as="targetPoint" />
            <mxPoint as="offset" />
          </mxGeometry>
        </mxCell>
        <mxCell id="VMAg0nFnMojZHeVVgGfn-6" value="extend" style="html=1;verticalAlign=bottom;labelBackgroundColor=none;endArrow=open;endFill=0;dashed=1;rounded=0;fontFamily=Verdana;exitX=0.5;exitY=1;exitDx=0;exitDy=0;entryX=0.5;entryY=0;entryDx=0;entryDy=0;" edge="1" parent="1" source="aV8iwCZ988Jx_RelG2w6-24" target="VMAg0nFnMojZHeVVgGfn-2">
          <mxGeometry x="-0.5294" y="7" width="160" relative="1" as="geometry">
            <mxPoint x="249" y="395" as="sourcePoint" />
            <mxPoint x="410" y="400" as="targetPoint" />
            <mxPoint as="offset" />
          </mxGeometry>
        </mxCell>
        <mxCell id="VMAg0nFnMojZHeVVgGfn-7" value="extend" style="html=1;verticalAlign=bottom;labelBackgroundColor=none;endArrow=open;endFill=0;dashed=1;rounded=0;fontFamily=Verdana;exitX=0.5;exitY=1;exitDx=0;exitDy=0;entryX=0.717;entryY=0.057;entryDx=0;entryDy=0;entryPerimeter=0;" edge="1" parent="1" source="aV8iwCZ988Jx_RelG2w6-21" target="VMAg0nFnMojZHeVVgGfn-2">
          <mxGeometry x="-0.5294" y="7" width="160" relative="1" as="geometry">
            <mxPoint x="259" y="405" as="sourcePoint" />
            <mxPoint x="386" y="450" as="targetPoint" />
            <mxPoint as="offset" />
          </mxGeometry>
        </mxCell>
        <mxCell id="VMAg0nFnMojZHeVVgGfn-8" value="extend" style="html=1;verticalAlign=bottom;labelBackgroundColor=none;endArrow=open;endFill=0;dashed=1;rounded=0;fontFamily=Verdana;exitX=0;exitY=1;exitDx=0;exitDy=0;entryX=0.924;entryY=0.229;entryDx=0;entryDy=0;entryPerimeter=0;" edge="1" parent="1" source="aV8iwCZ988Jx_RelG2w6-20" target="VMAg0nFnMojZHeVVgGfn-2">
          <mxGeometry x="-0.5294" y="7" width="160" relative="1" as="geometry">
            <mxPoint x="269" y="415" as="sourcePoint" />
            <mxPoint x="396" y="460" as="targetPoint" />
            <mxPoint as="offset" />
          </mxGeometry>
        </mxCell>
      </root>
    </mxGraphModel>
  </diagram>
</mxfile>
